<svg width="358" height="93" viewBox="0 0 358 93" fill="none" xmlns="http://www.w3.org/2000/svg">
<path d="M282.329 81.1887C282.213 80.8324 282.059 80.5132 281.869 80.231C281.682 79.9452 281.458 79.7018 281.197 79.5008C280.939 79.2997 280.647 79.1463 280.319 79.0404C279.991 78.9346 279.631 78.8817 279.239 78.8817C278.597 78.8817 278.013 79.0475 277.488 79.3791C276.962 79.7107 276.544 80.1992 276.234 80.8447C275.923 81.4903 275.768 82.2822 275.768 83.2205C275.768 84.1588 275.925 84.9507 276.239 85.5962C276.553 86.2418 276.978 86.7303 277.514 87.0619C278.05 87.3935 278.654 87.5593 279.324 87.5593C279.945 87.5593 280.491 87.427 280.964 87.1624C281.44 86.8943 281.811 86.5169 282.075 86.0301C282.343 85.5398 282.477 84.9631 282.477 84.2999L282.88 84.3846H279.62V83.2205H283.747V84.3846C283.747 85.277 283.557 86.053 283.176 86.7127C282.798 87.3723 282.276 87.8838 281.61 88.2471C280.946 88.6069 280.185 88.7868 279.324 88.7868C278.364 88.7868 277.521 88.5611 276.795 88.1096C276.072 87.658 275.507 87.016 275.101 86.1836C274.699 85.3511 274.498 84.3634 274.498 83.2205C274.498 82.3633 274.613 81.5926 274.842 80.9082C275.075 80.2204 275.403 79.6348 275.826 79.1516C276.25 78.6683 276.751 78.2979 277.329 78.0404C277.908 77.7829 278.544 77.6542 279.239 77.6542C279.811 77.6542 280.343 77.7406 280.837 77.9134C281.335 78.0827 281.777 78.3244 282.165 78.6383C282.557 78.9487 282.883 79.3209 283.144 79.7548C283.405 80.1851 283.585 80.6631 283.684 81.1887H282.329Z" fill="white"/>
<path d="M133.155 11.9545L122.326 41.8515H144.356L133.527 11.9545H133.155ZM103.535 67.7695L128.528 1.49253H138.155L163.147 67.7695C157.486 67.7695 152.437 64.2065 150.541 58.8725L147.319 49.8115H119.456L116.182 58.8865C114.259 64.2175 109.201 67.7695 103.535 67.7695Z" fill="white"/>
<path d="M209.245 67.771H201.099V61.476H200.727C199.432 63.697 197.443 65.548 194.757 67.029C192.073 68.51 189.28 69.252 186.38 69.252C180.827 69.252 176.552 67.664 173.561 64.484C170.568 61.307 169.072 56.787 169.072 50.924V22.415H177.588V50.368C177.771 57.774 181.504 61.476 188.786 61.476C192.181 61.476 195.019 60.105 197.304 57.357C199.585 54.611 200.727 51.327 200.727 47.499V22.415H209.245V67.771Z" fill="white"/>
<path d="M230.44 67.7715H221.922V22.4155H230.068V29.8195H230.44C231.303 27.4125 233.078 25.3615 235.762 23.6655C238.445 21.9675 241.083 21.1175 243.676 21.1175C246.142 21.1175 248.241 21.4905 249.971 22.2295L247.378 30.4685C246.328 30.0365 244.661 29.8195 242.381 29.8195C239.17 29.8195 236.377 31.1145 234.004 33.7075C231.626 36.3005 230.44 39.3245 230.44 42.7785V67.7715Z" fill="white"/>
<path d="M267.094 22.4155V67.7715H258.576V22.4155H267.094ZM268.852 6.77048C268.852 8.43749 268.265 9.85749 267.094 11.0305C265.92 12.2015 264.501 12.7885 262.834 12.7885C261.169 12.7885 259.747 12.2015 258.576 11.0305C257.405 9.85749 256.818 8.43749 256.818 6.77048C256.818 5.10549 257.405 3.68648 258.576 2.51248C259.747 1.34148 261.169 0.754486 262.834 0.754486C264.501 0.754486 265.92 1.34148 267.094 2.51248C268.265 3.68648 268.852 5.10549 268.852 6.77048Z" fill="white"/>
<path d="M301.434 0.754486C304.518 0.754486 307.049 1.27948 309.024 2.32848L306.71 9.82549C305.229 9.08648 303.564 8.71449 301.713 8.71449C299.614 8.71449 297.901 9.44149 296.575 10.8895C295.247 12.3395 294.583 14.2695 294.583 16.6765V22.4155H306.434V30.1885H294.583V67.7715H286.068V30.1885H277.553V22.4155H286.068V15.8415C286.068 11.3375 287.504 7.69749 290.373 4.91949C293.243 2.14249 296.928 0.754486 301.434 0.754486Z" fill="white"/>
<path d="M357.435 22.4156L329.017 89.8516C324.638 89.8516 321.707 85.3466 323.483 81.3436L330.775 64.9016L315.805 30.8886C314.049 26.8966 316.972 22.4156 321.334 22.4156L334.849 54.9956H335.032L344.714 31.0006C346.807 25.8126 351.841 22.4156 357.435 22.4156Z" fill="white"/>
<path d="M297.014 77.8023H298.516L301.522 82.8607H301.649L304.654 77.8023H306.157L302.241 84.1729V88.6387H300.929V84.1729L297.014 77.8023Z" fill="white"/>
<mask id="mask0_852_63" style="mask-type:luminance" maskUnits="userSpaceOnUse" x="16" y="0" width="39" height="26">
<path d="M16.5 9.89999L43.1 25.3C46.1 20.9 50.1 17.3 54.7 14.8L31.4 1.3C29.8 0.400003 28.1 0 26.5 0C21.3 0 16.5 4.09999 16.5 9.89999Z" fill="white"/>
</mask>
<g mask="url(#mask0_852_63)">
<path d="M449.277 -221.5L449.277 620.39L-146 620.39L-145.999 -221.501L449.277 -221.5Z" fill="url(#paint0_linear_852_63)"/>
</g>
<mask id="mask1_852_63" style="mask-type:luminance" maskUnits="userSpaceOnUse" x="45" y="16" width="37" height="58">
<path d="M45 26.3L76.9 44.8L70 48.8C70 48.8 58.1 56.1 45.6 63.7C48.6 67.8 52.7 71.2 57.5 73.4L78.6 61.1C80.4 56.2 81.3 50.8 81.3 45.3C81.3 39.3 80.2 33.6 78.2 28.3L56.9 16C52.1 18.4 48 22 45 26.3Z" fill="white"/>
</mask>
<g mask="url(#mask1_852_63)">
<path d="M-146 -221.5H449.276V620.39H-146V-221.5Z" fill="url(#paint1_linear_852_63)"/>
</g>
<mask id="mask2_852_63" style="mask-type:luminance" maskUnits="userSpaceOnUse" x="0" y="19" width="40" height="52">
<path d="M0 26.3004L31.9 44.8004L25 48.8004C25 48.8004 13.2 56.1004 0.600006 63.7004L0.699997 63.8004C5.6 70.4004 14.8 72.1004 21.9 67.9004L39.6 57.6004C38 53.7004 37.1 49.4004 37.1 44.9004C37.1 40.4004 38 36.0004 39.7 32.1004L21.5 21.6004C18.9 20.1004 16.1 19.4004 13.4 19.4004C8.19999 19.4004 3.1 21.8004 0 26.3004Z" fill="white"/>
</mask>
<g mask="url(#mask2_852_63)">
<path d="M449.277 -221.5L449.277 620.391L-146 620.39L-145.999 -221.501L449.277 -221.5Z" fill="url(#paint2_linear_852_63)"/>
</g>
<mask id="mask3_852_63" style="mask-type:luminance" maskUnits="userSpaceOnUse" x="16" y="64" width="40" height="27">
<path d="M16.8008 81.3008C16.8008 88.3008 24.3008 92.7008 30.4008 89.2008L55.3008 74.7008C50.7008 72.4008 46.8008 69.0008 43.8008 64.8008C31.1008 72.6008 18.2008 80.5008 16.8008 81.3008Z" fill="white"/>
</mask>
<g mask="url(#mask3_852_63)">
<path d="M449.277 -221.5L449.277 620.391L-146 620.39L-145.999 -221.501L449.277 -221.5Z" fill="url(#paint3_linear_852_63)"/>
</g>
<path d="M260.764 83.2205C260.764 84.3634 260.558 85.3511 260.145 86.1836C259.732 87.016 259.166 87.658 258.446 88.1096C257.727 88.5611 256.905 88.7868 255.981 88.7868C255.057 88.7868 254.235 88.5611 253.515 88.1096C252.795 87.658 252.229 87.016 251.817 86.1836C251.404 85.3511 251.198 84.3634 251.198 83.2205C251.198 82.0776 251.404 81.0899 251.817 80.2574C252.229 79.4249 252.795 78.7829 253.515 78.3314C254.235 77.8799 255.057 77.6542 255.981 77.6542C256.905 77.6542 257.727 77.8799 258.446 78.3314C259.166 78.7829 259.732 79.4249 260.145 80.2574C260.558 81.0899 260.764 82.0776 260.764 83.2205ZM259.494 83.2205C259.494 82.2822 259.337 81.4903 259.023 80.8447C258.713 80.1992 258.291 79.7107 257.759 79.3791C257.229 79.0475 256.637 78.8817 255.981 78.8817C255.325 78.8817 254.73 79.0475 254.198 79.3791C253.669 79.7107 253.247 80.1992 252.933 80.8447C252.623 81.4903 252.467 82.2822 252.467 83.2205C252.467 84.1588 252.623 84.9507 252.933 85.5962C253.247 86.2418 253.669 86.7303 254.198 87.0619C254.73 87.3935 255.325 87.5593 255.981 87.5593C256.637 87.5593 257.229 87.3935 257.759 87.0619C258.291 86.7303 258.713 86.2418 259.023 85.5962C259.337 84.9507 259.494 84.1588 259.494 83.2205Z" fill="white"/>
<path d="M232.965 88.6387V77.8023H234.277V87.4746H239.314V88.6387H232.965Z" fill="white"/>
<path d="M218.659 83.2205C218.659 84.3634 218.452 85.3511 218.039 86.1836C217.627 87.016 217.061 87.658 216.341 88.1096C215.621 88.5611 214.799 88.7868 213.875 88.7868C212.951 88.7868 212.129 88.5611 211.41 88.1096C210.69 87.658 210.124 87.016 209.711 86.1836C209.298 85.3511 209.092 84.3634 209.092 83.2205C209.092 82.0776 209.298 81.0899 209.711 80.2574C210.124 79.4249 210.69 78.7829 211.41 78.3314C212.129 77.8799 212.951 77.6542 213.875 77.6542C214.799 77.6542 215.621 77.8799 216.341 78.3314C217.061 78.7829 217.627 79.4249 218.039 80.2574C218.452 81.0899 218.659 82.0776 218.659 83.2205ZM217.389 83.2205C217.389 82.2822 217.232 81.4903 216.918 80.8447C216.607 80.1992 216.186 79.7107 215.653 79.3791C215.124 79.0475 214.531 78.8817 213.875 78.8817C213.219 78.8817 212.625 79.0475 212.092 79.3791C211.563 79.7107 211.142 80.1992 210.828 80.8447C210.517 81.4903 210.362 82.2822 210.362 83.2205C210.362 84.1588 210.517 84.9507 210.828 85.5962C211.142 86.2418 211.563 86.7303 212.092 87.0619C212.625 87.3935 213.219 87.5593 213.875 87.5593C214.531 87.5593 215.124 87.3935 215.653 87.0619C216.186 86.7303 216.607 86.2418 216.918 85.5962C217.232 84.9507 217.389 84.1588 217.389 83.2205Z" fill="white"/>
<path d="M196.477 77.8023V88.6387H195.207L189.303 80.1304H189.197V88.6387H187.884V77.8023H189.154L195.081 86.3317H195.186V77.8023H196.477Z" fill="white"/>
<path d="M166.254 88.6387V77.8023H167.566V82.6279H173.344V77.8023H174.656V88.6387H173.344V83.7919H167.566V88.6387H166.254Z" fill="white"/>
<path d="M152.714 81.1887H151.402C151.324 80.8112 151.188 80.4797 150.994 80.1939C150.804 79.9082 150.571 79.6683 150.296 79.4743C150.024 79.2768 149.722 79.1286 149.391 79.0299C149.059 78.9311 148.714 78.8817 148.354 78.8817C147.698 78.8817 147.103 79.0475 146.571 79.3791C146.042 79.7107 145.62 80.1992 145.306 80.8447C144.996 81.4903 144.84 82.2822 144.84 83.2205C144.84 84.1588 144.996 84.9507 145.306 85.5962C145.62 86.2418 146.042 86.7303 146.571 87.0619C147.103 87.3935 147.698 87.5593 148.354 87.5593C148.714 87.5593 149.059 87.5099 149.391 87.4111C149.722 87.3123 150.024 87.166 150.296 86.9719C150.571 86.7744 150.804 86.5328 150.994 86.2471C151.188 85.9578 151.324 85.6262 151.402 85.2523H152.714C152.615 85.8061 152.435 86.3017 152.174 86.7391C151.913 87.1765 151.588 87.5487 151.2 87.8556C150.812 88.1589 150.377 88.39 149.894 88.5487C149.414 88.7075 148.901 88.7868 148.354 88.7868C147.43 88.7868 146.608 88.5611 145.888 88.1096C145.169 87.658 144.602 87.016 144.19 86.1836C143.777 85.3511 143.571 84.3634 143.571 83.2205C143.571 82.0776 143.777 81.0899 144.19 80.2574C144.602 79.4249 145.169 78.7829 145.888 78.3314C146.608 77.8799 147.43 77.6542 148.354 77.6542C148.901 77.6542 149.414 77.7335 149.894 77.8923C150.377 78.051 150.812 78.2838 151.2 78.5907C151.588 78.8941 151.913 79.2644 152.174 79.7018C152.435 80.1357 152.615 80.6313 152.714 81.1887Z" fill="white"/>
<path d="M124.765 88.6387V77.8023H131.305V78.9664H126.078V82.6279H130.967V83.7919H126.078V87.4746H131.39V88.6387H124.765Z" fill="white"/>
<path d="M104.682 78.9664V77.8023H112.81V78.9664H109.402V88.6387H108.09V78.9664H104.682Z" fill="white"/>
<defs>
<linearGradient id="paint0_linear_852_63" x1="35.6231" y1="-0.00712055" x2="35.623" y2="25.2577" gradientUnits="userSpaceOnUse">
<stop stop-color="#306EBB"/>
<stop offset="0.205952" stop-color="#3070BC"/>
<stop offset="0.571429" stop-color="#3A96D2"/>
<stop offset="0.792857" stop-color="#42BCE9"/>
<stop offset="1" stop-color="#53CABB"/>
</linearGradient>
<linearGradient id="paint1_linear_852_63" x1="44.9645" y1="44.7305" x2="81.2775" y2="44.7305" gradientUnits="userSpaceOnUse">
<stop stop-color="#306EBB"/>
<stop offset="0.205952" stop-color="#3070BC"/>
<stop offset="0.571429" stop-color="#3A96D2"/>
<stop offset="0.792857" stop-color="#42BCE9"/>
<stop offset="1" stop-color="#53CABB"/>
</linearGradient>
<linearGradient id="paint2_linear_852_63" x1="19.8293" y1="19.3855" x2="19.8293" y2="70.1887" gradientUnits="userSpaceOnUse">
<stop stop-color="#306EBB"/>
<stop offset="0.205952" stop-color="#3070BC"/>
<stop offset="0.571429" stop-color="#3A96D2"/>
<stop offset="0.792857" stop-color="#42BCE9"/>
<stop offset="1" stop-color="#53CABB"/>
</linearGradient>
<linearGradient id="paint3_linear_852_63" x1="36.0189" y1="64.8094" x2="36.0189" y2="90.3956" gradientUnits="userSpaceOnUse">
<stop stop-color="#306EBB"/>
<stop offset="0.205952" stop-color="#3070BC"/>
<stop offset="0.571429" stop-color="#3A96D2"/>
<stop offset="0.792857" stop-color="#42BCE9"/>
<stop offset="1" stop-color="#53CABB"/>
</linearGradient>
</defs>
</svg>
